<svg xmlns="http://www.w3.org/2000/svg" width="292.362" height="560.998" viewBox="0 0 292.362 560.998">
  <g id="_25756" data-name="25756" transform="translate(-54.818 87)">
    <g id="Groupe_1" data-name="Groupe 1">
      <path id="Tracé_1" data-name="Tracé 1" d="M73.092,164.452H328.9a18.169,18.169,0,0,0,12.848-31.121L213.846,5.424a17.93,17.93,0,0,0-25.7,0L60.242,133.331a18.273,18.273,0,0,0,12.85,31.121Z" transform="translate(0 -87)" fill="#a6a6a6"/>
      <path id="Tracé_2" data-name="Tracé 2" d="M328.9,237.549H73.092a18.168,18.168,0,0,0-12.85,31.116l127.907,127.9a17.921,17.921,0,0,0,25.7,0L341.753,268.664A18.268,18.268,0,0,0,328.9,237.549Z" transform="translate(0 72)" fill="#a6a6a6"/>
    </g>
  </g>
</svg>
